PathFileType	4	(X/Y/Z)	./resultDataOpenSim/trcMotMarkerGrf/sub09/qtm-04-02.trc
DataRate	CameraRate	NumFrames	NumMarkers	Units	OrigDataRate	OrigDataStartFrame	OrigNumFrames
250.000000	250.000000	7	24	m	250.000000	247	493
Frame#	Time	L.Toe.Tip			R.Toe.Tip			L.Ankle.Lat			R.Ankle.Lat			L.Ankle.Med			R.Ankle.Med			L.Heel			R.Heel			L.Knee.Lat			R.Knee.Lat			L.Knee.Med			R.Knee.Med			L.Thigh.Upper			R.Thigh.Upper			L.ASIS			R.ASIS			V.Sacral			L.Acromium			R.Acromium			C7			L.Elbow			R.Elbow			L.Wrist.Lat			R.Wrist.Lat
		X1	Y1	Z1	X2	Y2	Z2	X3	Y3	Z3	X4	Y4	Z4	X5	Y5	Z5	X6	Y6	Z6	X7	Y7	Z7	X8	Y8	Z8	X9	Y9	Z9	X10	Y10	Z10	X11	Y11	Z11	X12	Y12	Z12	X13	Y13	Z13	X14	Y14	Z14	X15	Y15	Z15	X16	Y16	Z16	X17	Y17	Z17	X18	Y18	Z18	X19	Y19	Z19	X20	Y20	Z20	X21	Y21	Z21	X22	Y22	Z22	X23	Y23	Z23	X24	Y24	Z24

247	0.984	0.17852352	-0.03379228	0.014708443	0.4650341	0.10007919	0.12430423	0.03294335	0.022301267	-0.024146024	0.32279877	0.12920378	0.14988814	0.061850124	0.039838873	0.068521447	0.34425163	0.16144116	0.056718572	-0.0375438	-0.00012833274	0.023791357	0.25300347	0.11149111	0.097964166	0.13528214	0.42591686	-0.086865622	0.49356997	0.54023387	0.18761955	0.14246637	0.42615162	0.039718302	0.49072704	0.52922259	0.062419579	0.20868408	0.84429821	-0.14026735	0.23486929	0.85193828	0.23039532	0.30880826	0.92151077	-0.083484033	0.30914912	0.93277234	0.15539772	0.14601768	0.99025194	0.039083742	0.32964555	1.380622	-0.11293482	0.29278059	1.3859711	0.21387181	0.24542516	1.4357258	0.043064452	0.22959477	1.0172073	-0.17957162	0.1057985	1.0813048	0.2714149	0.46987202	0.8871365	-0.1761539	0.14611498	0.81971662	0.33307199
248	0.988	0.17862956	-0.033766278	0.0145141	0.48531982	0.099528914	0.12364805	0.032893467	0.023083773	-0.023432594	0.34215447	0.12488626	0.14899791	0.062537377	0.040538837	0.068954634	0.36306365	0.15788888	0.055936818	-0.037246293	0.00087765547	0.024956387	0.27316134	0.10549679	0.096759859	0.13573057	0.42657084	-0.086774216	0.5014983	0.54156503	0.18760877	0.14286455	0.42685811	0.039923684	0.4985425	0.53019191	0.062530368	0.21346054	0.84396621	-0.13992108	0.24101905	0.85159598	0.23064906	0.31420865	0.92086486	-0.083807576	0.31522659	0.93233735	0.15534429	0.15188182	0.98983163	0.039448446	0.3356707	1.3803417	-0.11279257	0.29921093	1.3854663	0.21403366	0.25177397	1.4351608	0.043261476	0.23727328	1.0162941	-0.17929648	0.11178571	1.0813015	0.27135413	0.4795829	0.88968811	-0.17518976	0.1505085	0.81968579	0.33373639
249	0.992	0.17874917	-0.033727891	0.014274152	0.50557536	0.09901221	0.1231395	0.032844788	0.023866438	-0.022758677	0.36146058	0.1207427	0.1481241	0.063218432	0.041224926	0.069378225	0.38192149	0.15442762	0.055151274	-0.036950225	0.0018879777	0.026077234	0.29340049	0.099702937	0.095491976	0.13627317	0.42718971	-0.086669809	0.50918491	0.54266678	0.18758715	0.14340438	0.42784557	0.039813062	0.50619606	0.53095543	0.062707494	0.21816848	0.84354131	-0.13949861	0.247151	0.85118501	0.23092325	0.31957505	0.92011985	-0.084100332	0.32134289	0.93180946	0.15531103	0.15783322	0.98931756	0.039932146	0.34171169	1.3799916	-0.11264664	0.30564266	1.3848967	0.21419612	0.25814405	1.4345079	0.043442536	0.24496192	1.0153312	-0.17901368	0.11776036	1.0812078	0.27134899	0.48925379	0.89217844	-0.17421862	0.1550461	0.81957927	0.33440594
250	0.996	0.17883854	-0.033706411	0.014080546	0.52581198	0.098530577	0.1227794	0.032809938	0.024646772	-0.022135937	0.38078299	0.11677533	0.14722901	0.063881361	0.041893742	0.069790446	0.40087356	0.15106121	0.05433928	-0.036660338	0.0028980305	0.027124046	0.31369854	0.094123089	0.09417976	0.13693553	0.42775865	-0.086543779	0.51668664	0.5435659	0.18765634	0.14433393	0.42882876	0.039560716	0.51375418	0.53151006	0.062918705	0.22285575	0.84303256	-0.13906463	0.25326326	0.85070805	0.23121579	0.32502642	0.91929639	-0.084292432	0.32750395	0.93118926	0.15529262	0.16383318	0.98871481	0.040475035	0.34778077	1.3795669	-0.11249086	0.31209382	1.3842595	0.21436072	0.26450269	1.4338085	0.043623956	0.25269192	1.0142853	-0.17868338	0.12371089	1.0810285	0.27138592	0.49888236	0.89460376	-0.17324651	0.1597507	0.81940082	0.33509188
251	1	0.17887747	-0.033710084	0.013968815	0.54598982	0.098107401	0.12258367	0.032793984	0.025420644	-0.021541725	0.40015831	0.11297416	0.146295	0.064515802	0.042537531	0.070178944	0.4199444	0.14780139	0.053493438	-0.036381831	0.0039024633	0.028073666	0.33405095	0.088767446	0.092839464	0.13775095	0.42827024	-0.086391555	0.52399876	0.54426832	0.1878863	0.14574747	0.42956146	0.039318947	0.52131535	0.53185548	0.063097534	0.22760478	0.84245568	-0.13871185	0.25935268	0.85016679	0.23152149	0.33053696	0.91838896	-0.084412697	0.33370963	0.93047796	0.15528294	0.16976296	0.98803668	0.040871472	0.35388373	1.379066	-0.11232504	0.31856357	1.3835502	0.2145274	0.27084573	1.4330659	0.043808428	0.26050338	1.0131068	-0.17823269	0.12961266	1.0807654	0.27144309	0.50845337	0.8969564	-0.17228638	0.16459637	0.81914791	0.33578868
252	1.004	0.17888187	-0.033731003	0.013916125	0.56605344	0.09778238	0.12256517	0.032802729	0.026176302	-0.020944103	0.41957252	0.10934919	0.14534147	0.065117455	0.043138065	0.070529785	0.43912063	0.14467089	0.052634227	-0.036115808	0.0048989048	0.028913476	0.35446464	0.083639827	0.091476137	0.13875105	0.42873133	-0.086215085	0.53114263	0.54478649	0.18820747	0.14744915	0.4300627	0.039165694	0.52893265	0.53199882	0.063201041	0.23249033	0.84182925	-0.13852905	0.26543145	0.8495669	0.23184031	0.33604892	0.91739713	-0.084498886	0.33995866	0.92967666	0.15527777	0.17555437	0.98730473	0.041011207	0.36002197	1.3784907	-0.11215466	0.32504023	1.3827665	0.21469216	0.27718598	1.4322704	0.043985675	0.26841771	1.0117699	-0.17762496	0.13545075	1.0804181	0.27150639	0.51795841	0.89922878	-0.17134351	0.16953125	0.81881536	0.33647831
253	1.008	0.17887545	-0.033759151	0.013892727	0.58598597	0.097582052	0.12270454	0.032852475	0.026897479	-0.020352576	0.43899627	0.10592241	0.14439934	0.065689934	0.043684649	0.070844676	0.45836338	0.14169402	0.0518065	-0.035851925	0.0058877693	0.029648739	0.37496722	0.078730628	0.090071155	0.1399593	0.4291464	-0.086024301	0.53819226	0.54513549	0.1884867	0.14921506	0.43044234	0.039143676	0.53652796	0.53194859	0.063285217	0.23750778	0.84115936	-0.13851778	0.27152152	0.84891612	0.23217814	0.34152089	0.91632652	-0.084575339	0.346251	0.92878494	0.15527293	0.18128886	0.98653828	0.041049779	0.3661953	1.3778425	-0.1119853	0.33151292	1.3819099	0.21484992	0.28353865	1.4314168	0.044149769	0.27639105	1.0103304	-0.17695396	0.14127931	1.0799852	0.27158526	0.52740585	0.90141831	-0.17041111	0.17451888	0.81839834	0.33714469
